<?xml version="1.0" encoding="iso-8859-1"?>
<!-- Uploaded to: SVG Repo, www.svgrepo.com, Generator: SVG Repo Mixer Tools -->
<svg fill="#000000" version="1.1" id="Layer_1" xmlns="http://www.w3.org/2000/svg" xmlns:xlink="http://www.w3.org/1999/xlink" 
	 viewBox="0 0 512 512" xml:space="preserve">
<g>
	<g>
		<rect x="147.571" y="220.556" width="20.785" height="15.589"/>
	</g>
</g>
<g>
	<g>
		<path d="M288.907,178.23v-20.026h-15.589v20.025h-54.768h-7.794H105.953h-7.794h-20.96v16.497l-8.336-16.776h-18.98v15.589h9.318
			l9.347,18.81c-1.411,0.518-2.928,0.815-4.516,0.815h-7.794v27.948h-6.179V256.7h21.768v-29.021
			c12.081-3.406,20.96-14.526,20.96-27.681v-6.179h5.372v68.31h-5.667v15.589h0.837c-13.863,28.219-17.796,59.56-11.368,89.374
			H15.589v-3.826c0-0.457,0.019-0.912,0.024-1.37h26.996v-15.589h-25.82c2.403-16.943,8.385-33.343,17.64-48.151l12.934-20.439
			h37.854v-15.589H38.78l-17.547,27.728C7.342,312.08,0,337.464,0,363.264v19.415h91.972l7.794-0.094v-8.928l-0.323-1.087
			c-6.726-22.622-6.474-46.635,0.49-69.34c5.092,13.579,18.291,23.279,33.733,23.279c16.816,0,31.352-12.192,35.044-27.993
			l49.673,0.106l-0.028-15.589l-64.548-0.138v7.811c0,10.579-9.594,20.213-20.265,20.213c-11.242,0-20.265-9.013-20.265-20.094
			V277.66h6.235v18.056l18.376,8.883l6.784-14.035l-9.571-4.627v-8.278h83.451V256.7h27.948v-7.794
			c0-7.26,5.906-13.166,13.166-13.166h42.729V178.23H288.907z M202.963,262.072h-89.215v-5.14h41.099v-15.589h-41.099v-5.196h20.314
			v-15.589h-20.314v-6.235h41.099v-15.589h-41.099v-4.917h89.215V262.072z M286.805,198.734h-55.056v15.589h55.056v5.827h-27.141
			v0.001c-13.156,0-24.275,8.879-27.681,20.96h-13.432v-47.294h68.254V198.734z"/>
	</g>
</g>
<g>
	<g>
		<rect x="57.158" y="346.304" width="13.51" height="15.589"/>
	</g>
</g>
<g>
	<g>
		<rect x="49.883" y="290.185" width="14.549" height="15.589"/>
	</g>
</g>
<g>
	<g>
		<path d="M512,207.048c0-12.034-9.765-21.824-21.768-21.824h-3.351l2.372-2.372c8.486-8.486,8.487-22.297,0-30.785
			c-8.485-8.487-22.297-8.487-30.784,0l-2.245,2.245v-3.224c0-12.003-9.79-21.768-21.824-21.768
			c-12.034,0-21.824,9.766-21.824,21.768v3.349l-2.37-2.37c-8.487-8.487-22.298-8.487-30.785,0s-8.486,22.298,0,30.785l2.372,2.372
			h-3.352c-9.456,0-17.501,6.087-20.498,14.549h-7.452c0.49-1.834,0.762-3.751,0.762-5.724c0-12.003-9.346-21.768-21.817-21.768
			v15.589c3.118,0,6.228,2.772,6.228,6.179c0,2.534-1.464,4.771-3.805,5.724h-23.206v15.589h20.785c3.118,0,6.179,3.1,6.179,6.634
			c0,3.408-3.062,6.179-6.179,6.179v15.589c12.471,0,21.768-9.765,21.768-21.768c0-2.31-0.331-4.538-0.952-6.634h8.07
			c3.268,7.92,11.051,13.51,20.119,13.51h3.223l-2.244,2.244c-8.487,8.487-8.487,22.297,0,30.784
			c4.243,4.243,9.818,6.365,15.392,6.365s11.149-2.122,15.392-6.365l2.37-2.37v3.349c0,12.003,9.79,21.768,21.824,21.768
			c12.034,0,21.824-9.766,21.824-21.768v-3.223l2.245,2.245c4.244,4.243,9.818,6.364,15.392,6.364s11.149-2.122,15.392-6.365
			c8.487-8.487,8.486-22.298,0-30.784l-2.244-2.244h3.223C502.235,228.872,512,219.082,512,207.048z M390.444,163.09
			c2.409-2.409,6.33-2.409,8.739,0l13.394,13.394v8.741h-8.738l-13.395-13.395C388.035,169.421,388.035,165.5,390.444,163.09z
			 M412.576,237.484l-13.394,13.394c-2.409,2.409-6.33,2.409-8.739,0c-2.41-2.409-2.41-6.33,0-8.74l13.266-13.266h8.867V237.484z
			 M378.442,213.284c-3.408,0-6.179-2.798-6.179-6.235c0-3.439,2.772-6.235,6.179-6.235h35.032
			c-0.581,1.959-0.904,4.027-0.904,6.171c0,2.191,0.333,4.305,0.937,6.3H378.442z M440.636,262.879c0,3.408-2.797,6.179-6.235,6.179
			c-3.439,0-6.235-2.772-6.235-6.179v-34.007h6.235h6.235V262.879z M428.159,206.984c-0.001-3.354,2.685-6.085,6.018-6.171h0.223
			h0.098c3.333,0.086,6.019,2.818,6.019,6.171c0,3.408-2.772,6.179-6.179,6.179C430.93,213.163,428.159,210.392,428.159,206.984z
			 M440.636,185.224h-6.138c-0.054,0-0.106-0.008-0.16-0.008c-0.054,0-0.106,0.007-0.16,0.008h-6.013v-34.136
			c0-3.408,2.797-6.179,6.235-6.179c3.439,0,6.235,2.773,6.235,6.179V185.224z M456.224,176.358l13.267-13.267
			c2.409-2.41,6.33-2.41,8.739,0c2.41,2.409,2.41,6.33,0,8.74l-13.395,13.395h-8.611V176.358z M478.231,250.878
			c-2.41,2.409-6.331,2.409-8.74,0l-13.267-13.268v-8.738h8.74l13.267,13.266C480.64,244.547,480.64,248.468,478.231,250.878z
			 M455.167,213.284c0.605-1.995,0.937-4.109,0.937-6.3c0-2.144-0.324-4.212-0.904-6.171h35.031c3.409,0,6.18,2.797,6.18,6.235
			c0,3.439-2.773,6.235-6.179,6.235H455.167z"/>
	</g>
</g>
</svg>